<svg id="Capa_2" data-name="Capa 2" xmlns="http://www.w3.org/2000/svg" viewBox="0 0 1536.66 767.03"><defs><style>.cls-1,.cls-2{fill:#fff;}.cls-2{font-size:194.83px;font-family:AvenirLTStd-Black, Avenir LT Std;font-weight:800;}</style></defs><path class="cls-1" d="M245.54,616.48l156.9,145a41.48,41.48,0,0,1,13.32,30.45v406.13a41.47,41.47,0,0,1-41.47,41.47H287a41.47,41.47,0,0,1-41.47-41.47Z" transform="translate(-245.54 -616.48)"/><path class="cls-1" d="M402.84,1257.92l-46.91,66.79c-17.76,25.28,3.34,57.53,37.72,57.67l279.52,1.14c24.54.09,44.5-17,44.5-38v-67.93c0-21-19.83-38-44.29-38H440.78C425.25,1239.53,410.86,1246.5,402.84,1257.92Z" transform="translate(-245.54 -616.48)"/><text class="cls-2" transform="translate(472.13 474.49)">LEDGETIZE</text></svg>