<?xml version="1.0" encoding="utf-8"?>
<!-- Generator: Adobe Illustrator 25.0.0, SVG Export Plug-In . SVG Version: 6.00 Build 0)  -->
<svg version="1.1" id="Capa_2_1_" xmlns="http://www.w3.org/2000/svg" xmlns:xlink="http://www.w3.org/1999/xlink" x="0px" y="0px"
	 viewBox="0 0 751.3 767" style="enable-background:new 0 0 751.3 767;" xml:space="preserve">
<path d="M166.2,43.2l139.2,128.7c7.5,7,11.8,16.8,11.8,27v360.4c0,20.3-16.5,36.8-36.8,36.8H203c-20.3,0-36.8-16.5-36.8-36.8
	L166.2,43.2z"/>
<path d="M305.8,612.4l-41.6,59.3c-15.8,22.4,3,51,33.5,51.2l248,1c21.8,0.1,39.5-15.1,39.5-33.7v-60.3c0-18.6-17.6-33.7-39.3-33.7
	H339.4C325.7,596.1,312.9,602.2,305.8,612.4z"/>
</svg>
